<?xml version="1.0" standalone="no"?>
<!DOCTYPE svg PUBLIC "-//W3C//DTD SVG 20010904//EN"
 "http://www.w3.org/TR/2001/REC-SVG-20010904/DTD/svg10.dtd">
<svg version="1.0" xmlns="http://www.w3.org/2000/svg"
 width="16.000000pt" height="16.000000pt" viewBox="0 0 16.000000 16.000000"
 preserveAspectRatio="xMidYMid meet">
<metadata>
Created by potrace 1.11, written by Peter Selinger 2001-2013
</metadata>
<g transform="translate(0.000000,16.000000) scale(0.010000,-0.010000)"
fill="#000000" stroke="none">
<path d="M838 1153 c-17 -21 -13 -53 8 -53 15 0 13 -37 -8 -133 -5 -26 -8 -53
-5 -61 8 -19 -39 -14 -64 7 -20 18 -22 17 -72 -26 -105 -90 -130 -117 -113
-117 14 0 17 -9 14 -52 -3 -57 -14 -64 -67 -46 -15 6 -29 4 -38 -4 -17 -13
-83 -19 -98 -9 -12 9 -74 7 -97 -3 -9 -4 -22 -5 -28 -1 -5 3 -10 0 -10 -8 0
-8 6 -17 13 -19 6 -2 244 -4 527 -4 l515 1 3 127 c2 121 3 127 24 130 18 2 6
17 -71 81 -51 42 -97 77 -103 77 -5 0 -34 -20 -63 -45 -57 -49 -90 -62 -99
-39 -3 9 1 14 14 14 10 0 21 4 24 8 13 21 -9 83 -39 117 -27 29 -39 35 -61 31
-20 -4 -31 1 -46 19 -23 29 -39 31 -60 8z m62 -200 c0 -17 -5 -35 -10 -38 -11
-7 -29 33 -24 53 14 46 15 47 24 32 6 -8 10 -29 10 -47z"/>
<path d="M16 541 c-19 -21 -21 -62 -4 -79 23 -23 78 -8 78 22 0 5 -8 2 -18 -7
-24 -22 -39 -21 -51 1 -16 30 -2 62 25 62 13 0 24 -5 24 -11 0 -5 5 -7 11 -3
14 8 -1 23 -28 28 -12 3 -28 -3 -37 -13z"/>
<path d="M510 552 c-8 -3 -18 -10 -22 -16 -12 -17 -9 -61 4 -74 19 -19 56 -14
68 8 6 11 7 20 1 20 -5 0 -11 -7 -15 -15 -14 -38 -62 -1 -52 40 5 18 13 25 31
25 14 0 25 -4 25 -10 0 -5 4 -10 10 -10 5 0 7 6 4 14 -6 16 -32 25 -54 18z"/>
<path d="M1085 543 c-16 -16 -16 -18 5 -35 12 -10 28 -18 36 -18 8 0 14 -5 14
-10 0 -16 -30 -24 -43 -11 -17 17 -31 13 -17 -5 19 -22 64 -14 68 12 2 16 -4
24 -27 32 -17 6 -31 15 -31 21 0 17 24 19 43 3 10 -9 17 -11 17 -4 0 10 -30
32 -44 32 -2 0 -12 -8 -21 -17z"/>
<path d="M106 503 c1 -27 3 -50 4 -53 5 -10 16 66 12 83 -8 34 -17 16 -16 -30z"/>
<path d="M580 498 c0 -28 3 -48 6 -45 10 9 11 97 2 97 -5 0 -8 -23 -8 -52z"/>
<path d="M144 517 c3 -10 6 -31 6 -45 0 -20 3 -23 9 -13 11 17 6 51 -10 65 -9
8 -10 6 -5 -7z"/>
<path d="M193 523 c-14 -5 -17 -31 -7 -57 8 -22 41 -20 54 3 13 25 13 27 -6
45 -16 17 -21 18 -41 9z m36 -44 c-13 -25 -26 -24 -34 2 -8 25 13 43 32 27 9
-7 10 -15 2 -29z"/>
<path d="M260 491 c0 -23 4 -40 8 -37 10 6 9 62 -1 72 -4 4 -7 -12 -7 -35z"/>
<path d="M302 521 c-8 -5 -12 -21 -10 -37 2 -23 8 -29 27 -29 13 0 27 7 29 15
5 13 3 13 -12 1 -22 -18 -41 -1 -31 28 5 17 10 19 26 11 11 -6 19 -7 19 -1 0
5 -7 12 -16 15 -19 7 -16 7 -32 -3z"/>
<path d="M370 516 c-18 -23 -8 -61 18 -64 16 -2 25 3 31 20 16 43 -21 77 -49
44z m37 -22 c-9 -9 -28 6 -21 18 4 6 10 6 17 -1 6 -6 8 -13 4 -17z m-7 -14 c8
-5 11 -12 8 -16 -10 -9 -38 3 -38 16 0 12 10 13 30 0z"/>
<path d="M620 516 c-28 -35 13 -88 44 -56 8 9 6 11 -11 6 -12 -4 -23 -3 -26 1
-8 13 12 55 22 48 6 -3 8 -12 4 -20 -6 -16 12 -21 22 -6 5 10 -21 41 -34 41
-5 0 -14 -7 -21 -14z"/>
<path d="M699 513 c-13 -15 -12 -15 7 -5 12 6 24 8 28 5 3 -3 -4 -11 -16 -17
-13 -6 -24 -19 -26 -28 -3 -14 4 -17 30 -16 32 1 34 3 30 32 -7 45 -30 58 -53
29z m31 -38 c0 -8 -7 -15 -15 -15 -26 0 -18 20 13 29 1 1 2 -6 2 -14z"/>
<path d="M770 487 c0 -44 9 -47 12 -4 2 19 8 27 21 27 14 0 18 -5 14 -19 -2
-10 0 -25 5 -32 6 -9 8 0 6 26 -3 36 -6 40 -30 41 -26 1 -28 -2 -28 -39z"/>
<path d="M848 518 c-2 -7 -1 -26 3 -43 6 -28 7 -26 8 13 1 42 -3 53 -11 30z"/>
<path d="M893 523 c-8 -2 -13 -21 -12 -41 1 -38 3 -36 13 10 8 37 35 27 32
-13 -1 -16 2 -29 7 -29 4 0 7 17 5 37 -3 37 -17 48 -45 36z"/>
<path d="M960 511 c-6 -12 -7 -21 -1 -21 5 0 11 5 13 12 7 21 37 1 31 -21 -6
-23 -18 -27 -28 -11 -3 6 -11 10 -17 10 -7 0 -6 -6 2 -15 7 -8 19 -15 27 -15
8 0 11 -5 8 -11 -4 -6 -14 -8 -22 -5 -8 3 -11 1 -8 -4 10 -16 34 -11 45 10 11
21 10 80 -1 80 -4 0 -14 3 -22 6 -10 3 -20 -3 -27 -15z"/>
<path d="M1169 503 c-6 -18 -6 -30 2 -39 13 -16 45 -18 54 -4 4 7 -2 9 -19 4
-16 -4 -26 -2 -26 5 0 10 21 16 43 12 4 0 7 8 7 19 0 11 -3 20 -7 21 -5 0 -16
2 -26 4 -12 2 -21 -5 -28 -22z m46 -3 c-3 -5 -13 -10 -21 -10 -8 0 -14 5 -14
10 0 6 9 10 21 10 11 0 17 -4 14 -10z"/>
<path d="M1263 523 c-8 -3 -12 -20 -11 -41 l1 -37 4 33 c5 41 30 42 44 2 6
-16 15 -30 19 -30 10 0 34 69 27 77 -3 3 -10 -10 -15 -28 l-10 -34 -11 31
c-11 30 -22 35 -48 27z"/>
<path d="M1400 515 c-19 -23 -4 -67 22 -63 12 2 24 10 26 18 5 13 3 13 -12 1
-21 -18 -37 -3 -30 26 5 19 10 21 25 12 11 -5 19 -6 19 0 0 5 -7 12 -16 15
-21 8 -20 8 -34 -9z"/>
<path d="M1475 514 c-9 -9 -14 -23 -11 -31 3 -8 6 -19 6 -24 0 -12 31 -11 50
2 12 8 10 9 -7 4 -12 -3 -24 -1 -28 5 -3 5 -1 11 4 11 26 3 30 4 37 11 7 8
-13 38 -27 38 -4 0 -15 -7 -24 -16z m35 -3 c0 -12 -20 -25 -27 -18 -7 7 6 27
18 27 5 0 9 -4 9 -9z"/>
<path d="M1546 515 c-8 -23 -9 -22 19 -29 14 -4 23 -11 20 -17 -4 -5 -16 -7
-28 -3 -17 5 -19 3 -11 -6 7 -6 20 -10 30 -8 26 5 29 34 4 41 -11 3 -20 11
-20 17 0 9 4 9 17 -1 14 -12 16 -12 11 1 -7 21 -34 24 -42 5z"/>
<path d="M1364 490 c5 -42 16 -51 16 -12 0 17 -4 34 -10 37 -6 4 -8 -6 -6 -25z"/>
</g>
</svg>
